<?xml version="1.0" encoding="UTF-8" standalone="no"?>
<svg
   xmlns:dc="http://purl.org/dc/elements/1.1/"
   xmlns:cc="http://creativecommons.org/ns#"
   xmlns:rdf="http://www.w3.org/1999/02/22-rdf-syntax-ns#"
   xmlns:svg="http://www.w3.org/2000/svg"
   xmlns="http://www.w3.org/2000/svg"
   xmlns:sodipodi="http://sodipodi.sourceforge.net/DTD/sodipodi-0.dtd"
   xmlns:inkscape="http://www.inkscape.org/namespaces/inkscape"
   width="130.07878"
   height="40.106998"
   version="1.1"
   id="svg6"
   sodipodi:docname="edna-logo-flat-white.svg"
   inkscape:version="1.0.2-2 (e86c870879, 2021-01-15)">
  <metadata
     id="metadata12">
    <rdf:RDF>
      <cc:Work
         rdf:about="">
        <dc:format>image/svg+xml</dc:format>
        <dc:type
           rdf:resource="http://purl.org/dc/dcmitype/StillImage" />
        <dc:title></dc:title>
      </cc:Work>
    </rdf:RDF>
  </metadata>
  <defs
     id="defs10" />
  <sodipodi:namedview
     pagecolor="#ffffff"
     bordercolor="#666666"
     borderopacity="1"
     objecttolerance="10"
     gridtolerance="10"
     guidetolerance="10"
     inkscape:pageopacity="1"
     inkscape:pageshadow="2"
     inkscape:window-width="2560"
     inkscape:window-height="1017"
     id="namedview8"
     showgrid="false"
     inkscape:pagecheckerboard="true"
     inkscape:zoom="1"
     inkscape:cx="157.73775"
     inkscape:cy="48.635892"
     inkscape:window-x="-8"
     inkscape:window-y="-8"
     inkscape:window-maximized="1"
     inkscape:current-layer="svg6"
     fit-margin-top="0"
     fit-margin-left="0"
     fit-margin-right="0"
     fit-margin-bottom="0" />
  <g
     id="g839"
     transform="matrix(0.4123258,0,0,0.4123258,-1.0718711e-4,3.6829361e-4)">
    <path
       d="m 201.776,10.2 h -6 c -1,0 -1.7,0.8 -1.7,1.7 v 18.6 c -4.5,-4.2 -10.3,-6.4 -16.5,-6.4 -13.8,0 -25.1,11.7 -25.1,26.2 0,14.4 11.3,26.2 25.1,26.2 6.2,0 12.2,-2.3 16.8,-6.7 l 0.3,3.2 c 0.1,0.9 0.9,1.5 1.7,1.5 h 5.4 c 1,0 1.7,-0.8 1.7,-1.7 V 12 c 0,-0.9 -0.8,-1.8 -1.7,-1.8 z m -8.5,40.1 c 0,9 -7,16.3 -15.7,16.3 -8.7,0 -15.8,-7.3 -15.8,-16.3 0,-9 7,-16.3 15.7,-16.3 8.7,0 15.8,7.2 15.8,16.3 z m 61.9,-17.3 c -1.2,-1.8 -2.6,-3.4 -4.2,-4.6 -1.6,-1.3 -3.4,-2.3 -5.4,-3 -3.5,-1.3 -7.4,-1.5 -11.4,-0.8 -5.8,1 -10,4 -12.5,6.2 l -0.3,-3.3 c -0.1,-0.9 -0.9,-1.5 -1.7,-1.5 h -5.8 c -1,0 -1.7,0.8 -1.7,1.7 v 45.1 c 0,1 0.8,1.7 1.7,1.7 h 6.4 c 1,0 1.7,-0.8 1.7,-1.7 V 40.7 c 4.7,-3.3 8.9,-5.6 13.7,-6.5 2,-0.4 4.5,-0.1 6.7,0.7 1.9,0.7 3.6,1.9 4.6,3.7 2.1,3.2 2.1,7.2 2.1,10.8 v 23.3 c 0,1 0.8,1.7 1.7,1.7 h 6.5 c 1,0 1.7,-0.8 1.7,-1.7 V 54.1 51.7 c 0.1,-4.3 0.1,-8.9 -1.2,-13.2 -0.7,-1.9 -1.5,-3.9 -2.6,-5.5 z m 58.5,-7.1 h -6 c -1,0 -1.7,0.8 -1.7,1.7 v 3 c -4.5,-4.2 -10.3,-6.4 -16.4,-6.4 -13.8,0 -25.1,11.7 -25.1,26.2 0,14.4 11.3,26.2 25.1,26.2 6.2,0 12.2,-2.3 16.8,-6.7 l 0.3,3.2 c 0.1,0.9 0.9,1.5 1.7,1.5 h 5.4 c 1,0 1.7,-0.8 1.7,-1.7 v -45 c 0,-1.2 -0.8,-2 -1.8,-2 z m -8.4,24.4 c 0,9 -7,16.3 -15.7,16.3 -8.7,0 -15.7,-7.3 -15.7,-16.3 0,-9 7,-16.3 15.7,-16.3 8.7,0 15.7,7.2 15.7,16.3 z m -156.8,-5.1 c -1.8,-11.9 -11.2,-21 -23.4,-21 h -0.3 c -13.8,0 -25.1,11.7 -25.1,26.2 0,14.4 11.2,26.1 25.1,26.2 h 0.5 c 8.4,0 15.6,-3.5 20.9,-9.4 0.6,-0.7 0.6,-1.6 0,-2.3 l -3.8,-4.2 c -0.4,-0.4 -0.8,-0.6 -1.3,-0.6 -0.5,0 -1,0.3 -1.3,0.7 -3.3,4.2 -7.7,6 -14.4,6 h -0.6 c -7.6,0 -13.9,-5.6 -15.4,-13 h 35.5 c 2.2,0 4,-1.8 4,-4.1 -0.1,-0.1 -0.1,-2.2 -0.4,-4.5 z m -38.2,-1.2 c 2.3,-5.9 7.9,-10 14.4,-10 h 0.5 c 6.5,0 12,4 14,10 h -0.1 z"
       id="path2"
       style="fill:#ffffff" />
    <path
       d="m 79.676,5.6 c -9.8,-8.3 -25.3,-7.3 -46.3,2.5 -25.4,11.8 -29.6,21.3 -30.7,23.8 -6.9,15.7 0.7,29.5 9.7,42.6 10.6,15.2 20.1,22.1 32,22.7 5.6,0.3 12.8,0 22,-8.8 5.6,-5.4 11.3,-14.3 16.5,-28.9 6.6,-18.3 14.1,-39.1 -3.2,-53.9 z m -16.5,47.8 c -8.1,22.8 -13.8,22.2 -18.5,21.8 -4.4,-0.4 -9.8,-4.8 -15.8,-13.5 -8.8,-12.7 -8.2,-16.5 -6.1,-21.5 1.5,-3.6 6.6,-7.1 19.5,-13.3 14.6,-7 20.4,-5.9 22.9,-4.1 5.4,4 5.4,10 -2,30.6 z"
       fill="#17e33b"
       id="path4"
       style="fill:#ffffff" />
  </g>
</svg>
