<?xml version="1.0" encoding="UTF-8" standalone="no"?>
<svg
   xmlns:dc="http://purl.org/dc/elements/1.1/"
   xmlns:cc="http://creativecommons.org/ns#"
   xmlns:rdf="http://www.w3.org/1999/02/22-rdf-syntax-ns#"
   xmlns:svg="http://www.w3.org/2000/svg"
   xmlns="http://www.w3.org/2000/svg"
   xmlns:sodipodi="http://sodipodi.sourceforge.net/DTD/sodipodi-0.dtd"
   xmlns:inkscape="http://www.inkscape.org/namespaces/inkscape"
   width="37.236561"
   height="40.106998"
   version="1.1"
   id="svg6"
   sodipodi:docname="edna-triangle-flat-white.svg"
   inkscape:version="1.0.2-2 (e86c870879, 2021-01-15)">
  <metadata
     id="metadata12">
    <rdf:RDF>
      <cc:Work
         rdf:about="">
        <dc:format>image/svg+xml</dc:format>
        <dc:type
           rdf:resource="http://purl.org/dc/dcmitype/StillImage" />
        <dc:title></dc:title>
      </cc:Work>
    </rdf:RDF>
  </metadata>
  <defs
     id="defs10" />
  <sodipodi:namedview
     pagecolor="#ffffff"
     bordercolor="#666666"
     borderopacity="1"
     objecttolerance="10"
     gridtolerance="10"
     guidetolerance="10"
     inkscape:pageopacity="1"
     inkscape:pageshadow="2"
     inkscape:window-width="2560"
     inkscape:window-height="1017"
     id="namedview8"
     showgrid="false"
     inkscape:pagecheckerboard="true"
     inkscape:zoom="5.6427121"
     inkscape:cx="157.73775"
     inkscape:cy="48.635892"
     inkscape:window-x="-8"
     inkscape:window-y="-8"
     inkscape:window-maximized="1"
     inkscape:current-layer="svg6"
     fit-margin-top="0"
     fit-margin-left="0"
     fit-margin-right="0"
     fit-margin-bottom="0"
     inkscape:document-rotation="0" />
  <path
     d="M 32.852363,2.3093928 C 28.81157,-1.1129114 22.420521,-0.70058556 13.761679,3.3402073 3.2886034,8.2056517 1.556835,12.122747 1.1032767,13.153561 c -2.8450481,6.473515 0.288628,12.163611 3.9995602,17.565079 4.3706535,6.267353 8.2877481,9.112401 13.1944261,9.359796 2.309024,0.123698 5.27777,0 9.071167,-3.628467 C 29.677455,34.22341 32.027712,30.55371 34.171806,24.533753 36.893156,16.988191 39.9856,8.4118146 32.852363,2.3093928 Z M 26.048988,22.018566 C 22.709149,31.419594 20.358892,31.172199 18.42096,31.007268 16.606727,30.842338 14.380167,29.028105 11.906213,25.44087 8.2777456,20.204332 8.5251411,18.637494 9.3910252,16.575865 10.009514,15.091493 12.112376,13.648352 17.431378,11.091932 23.451335,8.2056517 25.842825,8.6592101 26.873639,9.4013965 29.100198,11.0507 29.100198,13.524655 26.048988,22.018566 Z"
     fill="#17e33b"
     id="path4"
     style="fill:#ffffff;stroke-width:0.412326" />
</svg>
