<?xml version="1.0" encoding="UTF-8" standalone="no"?>
<svg
   xmlns:dc="http://purl.org/dc/elements/1.1/"
   xmlns:cc="http://creativecommons.org/ns#"
   xmlns:rdf="http://www.w3.org/1999/02/22-rdf-syntax-ns#"
   xmlns:svg="http://www.w3.org/2000/svg"
   xmlns="http://www.w3.org/2000/svg"
   xmlns:sodipodi="http://sodipodi.sourceforge.net/DTD/sodipodi-0.dtd"
   xmlns:inkscape="http://www.inkscape.org/namespaces/inkscape"
   width="312.52274"
   height="90.309677"
   version="1.1"
   id="svg10"
   sodipodi:docname="dena-logo-flat.svg"
   inkscape:version="1.0.2-2 (e86c870879, 2021-01-15)">
  <metadata
     id="metadata16">
    <rdf:RDF>
      <cc:Work
         rdf:about="">
        <dc:format>image/svg+xml</dc:format>
        <dc:type
           rdf:resource="http://purl.org/dc/dcmitype/StillImage" />
        <dc:title />
      </cc:Work>
    </rdf:RDF>
  </metadata>
  <defs
     id="defs14" />
  <sodipodi:namedview
     pagecolor="#ffffff"
     bordercolor="#666666"
     borderopacity="1"
     objecttolerance="10"
     gridtolerance="10"
     guidetolerance="10"
     inkscape:pageopacity="0"
     inkscape:pageshadow="2"
     inkscape:window-width="2560"
     inkscape:window-height="1017"
     id="namedview12"
     showgrid="false"
     inkscape:zoom="3.1536515"
     inkscape:cx="159.50776"
     inkscape:cy="51.509058"
     inkscape:window-x="-8"
     inkscape:window-y="-8"
     inkscape:window-maximized="1"
     inkscape:current-layer="svg10"
     fit-margin-top="0"
     fit-margin-left="0"
     fit-margin-right="0"
     fit-margin-bottom="0"
     inkscape:document-rotation="0" />
  <text
     xml:space="preserve"
     style="font-size:39.9999px;line-height:1.25;font-family:Calibri;-inkscape-font-specification:'Calibri, Normal'"
     x="111.15376"
     y="-22.52594"
     id="text2" />
  <g
     id="g866">
    <g
       id="g859">
      <path
         id="rect845"
         style="fill:#b015c2;fill-opacity:1;stroke:none;stroke-width:0.549884"
         d="m 51.109088,32.163023 c -0.691651,-0.11763 -1.42884,-0.116099 -2.298344,0.07303 -0.869504,0.18913 -1.871111,0.564839 -3.092024,1.196427 -1.220915,0.631588 -2.66071,1.519269 -4.406592,2.729015 -1.195997,0.824826 -2.244858,1.628877 -3.147872,2.408965 -0.903012,0.780088 -1.660607,1.53546 -2.27579,2.263976 -0.615182,0.728516 -1.087309,1.429544 -1.419818,2.099655 -0.332508,0.670111 -0.524967,1.310056 -0.579955,1.914929 -0.05499,0.646113 -0.116791,1.326595 0.01719,2.053473 0.06698,0.36344 0.182401,0.738477 0.372675,1.126619 0.190274,0.38814 0.455199,0.789169 0.819457,1.205019 0.364257,0.415851 0.827656,0.846521 1.416596,1.293087 0.588939,0.446566 1.302998,0.908383 2.167316,1.388672 0.864319,0.48029 1.879075,0.979052 3.06947,1.496072 1.190397,0.51702 2.556962,1.053157 4.124132,1.609914 2.831903,1.017286 5.161413,1.780035 7.098016,2.305862 1.936603,0.525827 3.480621,0.814086 4.738455,0.882822 0.628916,0.03437 1.186344,0.01439 1.686168,-0.05907 0.499824,-0.07346 0.941472,-0.199978 1.339269,-0.376971 0.397796,-0.176995 0.751155,-0.404682 1.073992,-0.680912 0.322837,-0.276231 0.615398,-0.600792 0.890339,-0.971964 0.216518,-0.300717 0.41482,-0.688242 0.552033,-1.194279 0.137212,-0.506037 0.213335,-1.130585 0.1858,-1.905263 -0.0354,-0.996013 -0.242443,-2.241098 -0.710982,-3.800859 -0.46854,-1.55976 -1.198576,-3.434198 -2.281161,-5.69216 -0.852324,-1.773372 -1.611912,-3.279324 -2.302643,-4.55265 -0.690732,-1.273325 -1.312928,-2.314238 -1.890227,-3.159686 -0.577298,-0.845446 -1.10971,-1.494997 -1.621729,-1.984737 -0.512018,-0.489741 -1.003323,-0.819456 -1.498218,-1.025663 -0.687356,-0.288689 -1.333899,-0.525693 -2.02555,-0.643321 z" />
      <path
         id="path853"
         style="fill:#008080;fill-opacity:1"
         d="m 53.931203,0.0146848 c -1.853107,-0.058539 -3.680882,0.059502 -5.486328,0.3261719 -1.805446,0.2666702 -3.589087,0.681958 -5.351563,1.2226562 -1.762475,0.5406983 -3.504319,1.2052048 -5.228515,1.96875 -1.724196,0.7635453 -3.430487,1.6272888 -5.121094,2.5625 -3.381213,1.8704224 -6.699609,4.0332031 -9.974609,6.2832031 -3.8,2.65 -7.081323,5.229688 -9.875,7.796875 -1.396838,1.283594 -2.67114,2.564258 -3.8281249,3.847657 -1.1569855,1.283398 -2.1961426,2.570312 -3.1210938,3.867187 -0.9249512,1.296875 -1.7367645,2.603711 -2.4375,3.927734 -0.7007355,1.324024 -1.2910522,2.664454 -1.7753906,4.029297 -0.4843384,1.364844 -0.862912,2.754492 -1.1386719,4.173828 -0.2757599,1.419336 -0.4484375,2.869922 -0.5234375,4.357422 -0.075,1.4 -0.1135598,2.89961 0.00977,4.50586 0.1233255,1.60625 0.4079608,3.317578 0.9765625,5.142578 0.5686018,1.825 1.4227648,3.764062 2.6835938,5.820312 1.2608289,2.05625 2.9288992,4.23125 5.1289062,6.53125 1.3500002,1.4 2.9183222,2.80586 4.7402342,4.208985 1.821912,1.403125 3.897216,2.801953 6.259765,4.189453 2.362549,1.3875 5.012463,2.764062 7.984375,4.117187 2.971912,1.353125 6.266016,2.684375 9.916016,3.984375 4.575,1.65 9.305823,3.35597 14.060547,4.716797 2.377362,0.680414 4.760328,1.27292 7.132812,1.730469 2.372484,0.457548 4.73396,0.779761 7.068359,0.914062 2.3344,0.134302 4.643142,0.0823 6.90625,-0.207031 2.263109,-0.289326 4.482014,-0.81557 6.640626,-1.628906 2.158611,-0.813336 4.256434,-1.913835 6.277343,-3.351563 2.020909,-1.437727 3.964454,-3.2125 5.814453,-5.375 0.907813,-1.071875 1.704639,-2.211899 2.390625,-3.419922 0.685987,-1.208022 1.261113,-2.4845 1.726563,-3.828124 0.46545,-1.343625 0.820205,-2.755693 1.066406,-4.234376 0.246201,-1.478682 0.383869,-3.023523 0.41211,-4.636718 0.03631,-2.074109 -0.108188,-4.259298 -0.429688,-6.554688 -0.3215,-2.295389 -0.819585,-4.701144 -1.496094,-7.216797 -0.676509,-2.515652 -1.529876,-5.142055 -2.558594,-7.876953 -1.028717,-2.734897 -2.233203,-5.578125 -3.611328,-8.53125 -1.474999,-3.175 -2.914627,-6.020476 -4.308593,-8.568359 -1.393967,-2.547884 -2.742542,-4.799555 -4.03711,-6.791016 C 79.529213,16.02713 78.289647,14.295808 77.112844,12.790075 75.93604,11.284343 74.821486,10.003821 73.780812,8.9131223 71.699465,6.7317258 69.90862,5.3097165 68.481984,4.3642942 67.055349,3.4188718 65.993703,2.9517942 65.368703,2.6767942 63.406203,1.8142942 61.47338,1.1781293 59.567922,0.7432004 57.662464,0.3082715 55.78431,0.0732236 53.931203,0.0146848 Z M 53.386281,21.606482 c 1.257813,0.213916 2.433594,0.644922 3.683594,1.169922 0.9,0.375 1.793469,0.974609 2.724609,1.865234 0.93114,0.890625 1.899366,2.071875 2.949219,3.609375 1.049854,1.5375 2.18136,3.430469 3.4375,5.746094 1.25614,2.315625 2.6375,5.054297 4.1875,8.279297 1.96875,4.10625 3.296368,7.515036 4.148438,10.351562 0.852069,2.836527 1.228588,5.100794 1.292968,6.91211 0.05007,1.408801 -0.08836,2.544583 -0.33789,3.464843 -0.24953,0.920261 -0.610157,1.625 -1.003907,2.171875 -0.5,0.675 -1.032041,1.265235 -1.61914,1.767578 -0.587099,0.502344 -1.229706,0.916407 -1.953125,1.238282 -0.723419,0.321875 -1.526585,0.551953 -2.435547,0.685547 -0.908962,0.133593 -1.922681,0.169921 -3.066406,0.107421 -2.287452,-0.125 -5.095349,-0.649218 -8.617188,-1.605468 -3.521838,-0.95625 -7.758203,-2.34336 -12.908203,-4.19336 -2.85,-1.0125 -5.335188,-1.9875 -7.5,-2.927734 -2.164812,-0.940234 -4.010211,-1.847266 -5.582031,-2.720703 -1.57182,-0.873438 -2.870381,-1.713281 -3.941406,-2.525391 -1.071025,-0.812109 -1.913745,-1.595312 -2.576172,-2.351562 -0.662427,-0.75625 -1.14421,-1.485547 -1.490235,-2.191406 -0.346025,-0.70586 -0.555914,-1.387891 -0.677734,-2.048829 -0.24364,-1.321875 -0.13125,-2.559375 -0.03125,-3.734375 0.1,-1.1 0.45,-2.263781 1.054687,-3.482422 0.604688,-1.21864 1.463282,-2.493505 2.582032,-3.818359 1.11875,-1.324853 2.496484,-2.698547 4.138672,-4.117187 1.642187,-1.418641 3.549609,-2.88086 5.724609,-4.38086 3.175,-2.2 5.793359,-3.814306 8.013672,-4.96289 2.220312,-1.148584 4.041797,-1.831836 5.623047,-2.175782 1.58125,-0.343945 2.921875,-0.346728 4.179687,-0.132812 z" />
    </g>
    <g
       aria-label="dena"
       style="font-style:normal;font-variant:normal;font-weight:400;font-stretch:normal;font-size:94.6835px;line-height:1.25;font-family:'Bauhaus 93';-inkscape-font-specification:'Bauhaus 93, ';fill:#b015c2;fill-opacity:1;stroke-width:2.36709"
       id="g6"
       transform="translate(6.4917503,2.8740598)">
      <path
         d="m 131.082,12.07 h 17.291 v 38.42 q 0,10.587 -5.548,17.244 -3.19,3.837 -8.137,6.103 -4.9,2.265 -10.078,2.265 -10.31,0 -17.384,-6.935 -7.073,-6.935 -7.073,-17.013 0,-9.755 7.027,-16.875 7.027,-7.12 16.644,-7.12 1.525,0 4.623,0.278 v 19.047 q -2.127,-1.664 -4.253,-1.664 -2.682,0 -4.624,1.988 -1.895,1.942 -1.895,4.716 0,2.681 1.988,4.623 1.988,1.895 4.762,1.895 6.657,0 6.657,-9.2 z m 71.706,42.858 h -26.213 q -0.601,-1.988 -0.601,-3.653 0,-2.311 0.832,-4.53 h 8.784 q -0.925,-5.132 -5.78,-5.132 -3.235,0 -5.27,2.774 -2.034,2.727 -2.034,7.027 0,4.485 1.942,7.258 1.988,2.774 5.178,2.774 2.589,0 4.993,-2.589 l 9.847,11.836 q -6.888,5.409 -15.302,5.409 -10.264,0 -17.245,-6.889 -6.981,-6.888 -6.981,-17.06 0,-10.124 7.027,-17.105 7.074,-6.981 17.337,-6.981 10.033,0 16.829,6.842 6.842,6.796 6.842,16.782 0,1.018 -0.185,3.237 z m 48.267,20.249 H 233.764 V 49.15 q 0,-3.976 -3.283,-3.976 -3.236,0 -3.236,3.976 v 26.028 h -17.29 V 49.472 q 0,-9.015 5.963,-15.164 5.964,-6.195 14.61,-6.195 9.893,0 15.857,7.166 4.67,5.594 4.67,15.58 z m 35.691,-17.29 v 17.891 q -2.127,0.37 -3.884,0.37 -10.402,0 -17.337,-6.842 -6.935,-6.842 -6.935,-17.152 0,-10.033 6.982,-17.014 7.027,-6.98 17.06,-6.98 11.187,0 17.614,6.564 6.472,6.519 6.472,17.846 v 22.607 h -17.29 V 53.818 q 0,-3.652 -1.804,-5.825 -1.757,-2.173 -4.762,-2.173 -2.727,0 -4.715,1.988 -1.988,1.988 -1.988,4.716 0,2.866 1.803,4.715 1.803,1.85 4.577,1.85 2.265,0 4.207,-1.202 z"
         style="fill:#b015c2;fill-opacity:1;stroke-width:2.36709"
         transform="translate(-0.687,0.225)"
         id="path4" />
    </g>
  </g>
</svg>
