<svg xmlns="http://www.w3.org/2000/svg" width="306.032" height="97.27"><text xml:space="preserve" style="font-size:39.9999px;line-height:1.25;font-family:Calibri;-inkscape-font-specification:'Calibri, Normal'" x="104.662" y="-25.4"/><g aria-label="dena" style="font-style:normal;font-variant:normal;font-weight:400;font-stretch:normal;font-size:94.6835px;line-height:1.25;font-family:'Bauhaus 93';-inkscape-font-specification:'Bauhaus 93, ';fill:#b015c2;fill-opacity:1;stroke-width:2.36709"><path d="M131.082 12.07h17.291v38.42q0 10.587-5.548 17.244-3.19 3.837-8.137 6.103-4.9 2.265-10.078 2.265-10.31 0-17.384-6.935-7.073-6.935-7.073-17.013 0-9.755 7.027-16.875 7.027-7.12 16.644-7.12 1.525 0 4.623.278v19.047q-2.127-1.664-4.253-1.664-2.682 0-4.624 1.988-1.895 1.942-1.895 4.716 0 2.681 1.988 4.623 1.988 1.895 4.762 1.895 6.657 0 6.657-9.2zM202.788 54.928h-26.213q-.601-1.988-.601-3.653 0-2.311.832-4.53h8.784q-.925-5.132-5.78-5.132-3.235 0-5.27 2.774-2.034 2.727-2.034 7.027 0 4.485 1.942 7.258 1.988 2.774 5.178 2.774 2.589 0 4.993-2.589l9.847 11.836q-6.888 5.409-15.302 5.409-10.264 0-17.245-6.889-6.981-6.888-6.981-17.06 0-10.124 7.027-17.105 7.074-6.981 17.337-6.981 10.033 0 16.829 6.842 6.842 6.796 6.842 16.782 0 1.018-.185 3.237zM251.055 75.177h-17.291V49.15q0-3.976-3.283-3.976-3.236 0-3.236 3.976v26.028h-17.29V49.472q0-9.015 5.963-15.164 5.964-6.195 14.61-6.195 9.893 0 15.857 7.166 4.67 5.594 4.67 15.58zM286.746 57.887v17.891q-2.127.37-3.884.37-10.402 0-17.337-6.842-6.935-6.842-6.935-17.152 0-10.033 6.982-17.014 7.027-6.98 17.06-6.98 11.187 0 17.614 6.564 6.472 6.519 6.472 17.846v22.607h-17.29V53.818q0-3.652-1.804-5.825-1.757-2.173-4.762-2.173-2.727 0-4.715 1.988t-1.988 4.716q0 2.866 1.803 4.715 1.803 1.85 4.577 1.85 2.265 0 4.207-1.202z" style="fill:#b015c2;fill-opacity:1;stroke-width:2.36709" transform="translate(-.687 .225)"/></g><path d="M79.676 5.6c-9.8-8.3-25.3-7.3-46.3 2.5-25.4 11.8-29.6 21.3-30.7 23.8-6.9 15.7.7 29.5 9.7 42.6 10.6 15.2 20.1 22.1 32 22.7 5.6.3 12.8 0 22-8.8 5.6-5.4 11.3-14.3 16.5-28.9 6.6-18.3 14.1-39.1-3.2-53.9zm-16.5 47.8c-8.1 22.8-13.8 22.2-18.5 21.8-4.4-.4-9.8-4.8-15.8-13.5-8.8-12.7-8.2-16.5-6.1-21.5 1.5-3.6 6.6-7.1 19.5-13.3 14.6-7 20.4-5.9 22.9-4.1 5.4 4 5.4 10-2 30.6z" fill="#17e33b" style="fill:#b015c2;fill-opacity:1;stroke:none;stroke-opacity:1"/></svg>