<?xml version="1.0" encoding="UTF-8" standalone="no"?>
<svg
   xmlns:dc="http://purl.org/dc/elements/1.1/"
   xmlns:cc="http://creativecommons.org/ns#"
   xmlns:rdf="http://www.w3.org/1999/02/22-rdf-syntax-ns#"
   xmlns:svg="http://www.w3.org/2000/svg"
   xmlns="http://www.w3.org/2000/svg"
   xmlns:sodipodi="http://sodipodi.sourceforge.net/DTD/sodipodi-0.dtd"
   xmlns:inkscape="http://www.inkscape.org/namespaces/inkscape"
   width="210mm"
   height="297mm"
   version="1.1"
   id="svg10"
   sodipodi:docname="dena-swirl.svg"
   inkscape:version="1.0.2-2 (e86c870879, 2021-01-15)"
   inkscape:export-filename="C:\Users\Rodrik\Documents\github\_home\docs\modules\ROOT\images\dena-swirl.png"
   inkscape:export-xdpi="96"
   inkscape:export-ydpi="96">
  <metadata
     id="metadata16">
    <rdf:RDF>
      <cc:Work
         rdf:about="">
        <dc:format>image/svg+xml</dc:format>
        <dc:type
           rdf:resource="http://purl.org/dc/dcmitype/StillImage" />
        <dc:title />
      </cc:Work>
    </rdf:RDF>
  </metadata>
  <defs
     id="defs14" />
  <sodipodi:namedview
     pagecolor="#ffffff"
     bordercolor="#666666"
     borderopacity="1"
     objecttolerance="10"
     gridtolerance="10"
     guidetolerance="10"
     inkscape:pageopacity="0"
     inkscape:pageshadow="2"
     inkscape:window-width="2560"
     inkscape:window-height="1017"
     id="namedview12"
     showgrid="false"
     inkscape:zoom="0.66"
     inkscape:cx="-21.280119"
     inkscape:cy="499.41485"
     inkscape:window-x="-8"
     inkscape:window-y="-8"
     inkscape:window-maximized="1"
     inkscape:current-layer="svg10"
     fit-margin-top="0"
     fit-margin-left="0"
     fit-margin-right="0"
     fit-margin-bottom="0"
     inkscape:document-rotation="0"
     units="mm" />
  <text
     xml:space="preserve"
     style="font-size:39.9999px;line-height:1.25;font-family:Calibri;-inkscape-font-specification:'Calibri, Normal'"
     x="-69.634117"
     y="-435.0976"
     id="text2" />
  <g
     id="g849"
     transform="translate(-2)">
    <path
       id="path853"
       style="opacity:0.2;fill:#008080;fill-opacity:1;stroke-width:4.42033"
       d="m 304.39407,333.21425 c -8.19136,-0.25876 -16.27074,0.26301 -24.25142,1.44179 -7.98068,1.17877 -15.86498,3.01449 -23.65571,5.40456 -7.79074,2.39006 -15.49027,5.3274 -23.11179,8.70253 -7.62153,3.37512 -15.16391,7.19317 -22.63697,11.32711 -14.9461,8.26791 -29.61452,17.82811 -44.09112,27.77387 -16.79728,11.71389 -31.30184,23.11699 -43.65084,34.46481 -6.17449,5.67392 -11.80732,11.33489 -16.92159,17.00795 -5.11426,5.67305 -9.707689,11.36164 -13.796286,17.09427 -4.088595,5.73262 -7.677083,11.50928 -10.774571,17.3619 -3.097487,5.85263 -5.706884,11.77778 -7.847823,17.81085 -2.14094,6.03307 -3.814362,12.17579 -5.033315,18.44972 -1.21895,6.27395 -1.982244,12.68601 -2.313769,19.26127 -0.331526,6.18847 -0.501972,12.81727 0.04318,19.91744 0.54514,7.10015 1.803325,14.66481 4.316736,22.73193 2.513411,8.0671 6.2891,16.63841 11.862388,25.72772 5.573289,9.08933 12.946719,18.70355 22.6715,28.87033 5.96745,6.18846 12.89997,12.40285 20.95343,18.60512 8.05346,6.2023 17.22701,12.38557 27.67027,18.5188 10.44324,6.13322 22.15678,12.21808 35.2936,18.19935 13.13686,5.98128 27.69791,11.86585 43.83214,17.61228 20.22304,7.29355 41.13487,14.83453 62.15235,20.84983 10.50873,3.00766 21.04226,5.62671 31.52944,7.64924 10.48718,2.02252 20.92571,3.4468 31.24452,4.04049 10.31884,0.59367 20.52426,0.36382 30.52795,-0.91517 10.00372,-1.27889 19.81201,-3.60511 29.35381,-7.2003 9.54177,-3.59521 18.81486,-8.45978 27.74797,-14.81504 8.9331,-6.35524 17.52423,-14.20033 25.70183,-23.7593 4.01285,-4.73804 7.53509,-9.77735 10.56737,-15.11722 3.0323,-5.33985 5.57454,-10.98233 7.632,-16.92159 2.05743,-5.93928 3.62557,-12.18108 4.71387,-18.71736 1.08828,-6.53627 1.69681,-13.365 1.82166,-20.49585 0.16048,-9.16828 -0.47823,-18.82755 -1.89936,-28.97393 -1.42116,-10.14641 -3.62285,-20.78064 -6.61324,-31.90069 -2.99042,-11.12002 -6.76258,-22.72961 -11.30984,-34.81876 -4.54731,-12.08919 -9.87152,-24.65721 -15.9633,-37.71102 -6.51999,-14.03456 -12.88364,-26.61253 -19.04544,-37.87502 -6.1618,-11.26251 -12.12295,-21.21566 -17.84536,-30.01859 -5.72244,-8.80293 -11.20176,-16.45595 -16.40362,-23.1118 -5.20185,-6.65583 -10.12857,-12.31617 -14.72871,-17.13743 -9.20024,-9.64251 -17.11639,-15.92827 -23.4226,-20.10735 -6.30621,-4.17909 -10.99903,-6.24372 -13.76173,-7.45932 -8.67493,-3.81254 -17.21865,-6.6246 -25.64141,-8.54714 -8.42278,-1.92253 -16.72485,-2.96151 -24.9162,-3.22028 z m -2.40874,95.44301 c 5.55994,0.94558 10.7573,2.85078 16.28272,5.17145 3.97831,1.65763 7.92774,4.3081 12.04368,8.24497 4.11597,3.93686 8.39585,9.15837 13.03656,15.95465 4.64072,6.79626 9.64235,15.16382 15.19489,25.39967 5.55257,10.23585 11.65866,22.3417 18.51017,36.59728 8.70255,18.15101 14.57107,33.21898 18.3375,45.7574 3.76642,12.53838 5.43077,22.54721 5.71536,30.55385 0.22132,6.22736 -0.39058,11.24792 -1.49359,15.31575 -1.10301,4.06788 -2.6971,7.18306 -4.43763,9.60043 -2.21015,2.98373 -4.56195,5.59277 -7.15713,7.81329 -2.59517,2.22054 -5.43572,4.05083 -8.63348,5.47362 -3.19774,1.4228 -6.74803,2.43982 -10.76593,3.03037 -4.01791,0.5905 -8.49889,0.75109 -13.55454,0.47482 -10.11131,-0.55255 -22.52318,-2.86976 -38.09088,-7.09672 -15.56771,-4.22693 -34.29387,-10.35842 -57.0586,-18.53606 -12.59795,-4.47558 -23.58333,-8.78539 -33.15253,-12.94156 -9.56919,-4.15615 -17.72647,-8.16553 -24.67446,-12.02643 -6.94797,-3.86087 -12.68804,-7.57328 -17.42233,-11.16308 -4.73429,-3.58979 -8.4594,-7.05181 -11.38755,-10.39469 -2.92816,-3.34286 -5.0578,-6.5666 -6.58734,-9.68676 -1.52955,-3.12014 -2.45733,-6.13494 -2.99581,-9.05651 -1.07697,-5.84314 -0.58017,-11.3133 -0.1381,-16.50719 0.44204,-4.86238 1.98914,-10.00667 4.66207,-15.39348 2.67293,-5.38679 6.4682,-11.02213 11.41346,-16.87843 4.94524,-5.8563 11.03529,-11.92849 18.29431,-18.19936 7.25903,-6.27086 15.69047,-12.73436 25.3047,-19.36487 14.03457,-9.72473 25.6086,-16.86051 35.42313,-21.93765 9.81453,-5.07712 17.86611,-8.09733 24.85576,-9.61769 6.98967,-1.52034 12.91568,-1.53264 18.47562,-0.58707 z" />
    <path
       id="path853-2"
       style="opacity:0.2;fill:#b015c2;fill-opacity:1;stroke-width:4.42033"
       d="m 332.65639,276.0649 c -8.19139,-0.25877 -16.27073,0.263 -24.25144,1.44178 -7.98069,1.17878 -15.86498,3.01449 -23.65568,5.40455 -7.79077,2.39007 -15.49029,5.32741 -23.11183,8.70253 -7.62149,3.37514 -15.16393,7.19317 -22.63694,11.32711 -14.94614,8.26791 -29.61454,17.82813 -44.09113,27.77389 -16.79729,11.71389 -31.30182,23.11698 -43.65083,34.46481 -6.1745,5.67392 -11.80735,11.33488 -16.92162,17.00793 -5.11425,5.67305 -9.70769,11.36165 -13.79627,17.09427 -4.08859,5.73263 -7.67707,11.50928 -10.77458,17.36191 -3.0975,5.85264 -5.70687,11.77777 -7.84781,17.81084 -2.140949,6.03308 -3.814356,12.17579 -5.033308,18.44974 -1.218951,6.27393 -1.982256,12.68601 -2.313781,19.26126 -0.331526,6.18848 -0.501974,12.81726 0.0442,19.91742 0.54516,7.10017 1.803322,14.66482 4.316725,22.73191 2.513404,8.06713 6.289124,16.63844 11.862414,25.72775 5.57326,9.08933 12.94673,18.70356 22.67147,28.87033 5.96745,6.18849 12.89996,12.40286 20.95346,18.60513 8.05345,6.20231 17.22698,12.38559 27.67024,18.51877 10.44327,6.13327 22.15676,12.21813 35.29365,18.19936 13.13684,5.9813 27.69787,11.86586 43.8321,17.61232 20.22304,7.29355 41.1349,14.8345 62.15236,20.84979 10.50872,3.00767 21.04226,5.62674 31.52944,7.64926 10.48719,2.02251 20.92569,3.4468 31.24452,4.04047 10.31884,0.59368 20.52424,0.36379 30.52795,-0.91514 10.00371,-1.27891 19.81199,-3.60512 29.35383,-7.20032 9.54177,-3.59521 18.81485,-8.45981 27.74794,-14.81501 8.93311,-6.35526 17.52426,-14.20033 25.70189,-23.7593 4.0128,-4.73807 7.53504,-9.77735 10.56736,-15.11724 3.0323,-5.33987 5.57453,-10.98233 7.63197,-16.9216 2.05743,-5.93929 3.62559,-12.18106 4.7139,-18.71737 1.08827,-6.53628 1.69683,-13.36499 1.82166,-20.49587 0.16047,-9.16821 -0.47824,-18.8275 -1.89938,-28.9739 -1.42113,-10.1464 -3.62282,-20.78064 -6.61322,-31.90068 -2.99039,-11.12003 -6.76257,-22.72961 -11.30989,-34.81879 -4.54725,-12.08915 -9.8715,-24.65719 -15.96325,-37.71099 -6.52,-14.03457 -12.88365,-26.61253 -19.04548,-37.87503 -6.16175,-11.26251 -12.12296,-21.21566 -17.84538,-30.01857 -5.72244,-8.80293 -11.20176,-16.45595 -16.40359,-23.1118 -5.20191,-6.65585 -10.1286,-12.31619 -14.72871,-17.13745 -9.20025,-9.64251 -17.11642,-15.92826 -23.4226,-20.10735 -6.30624,-4.17909 -10.99903,-6.24372 -13.76175,-7.45932 -8.67492,-3.81254 -17.21868,-6.6246 -25.64139,-8.54712 -8.42278,-1.92255 -16.72488,-2.96153 -24.91622,-3.22028 z m -2.40873,95.443 c 5.55994,0.94558 10.75729,2.85077 16.2827,5.17145 3.9783,1.65763 7.92775,4.30809 12.0437,8.24496 4.11594,3.93686 8.39582,9.15839 13.03655,15.95465 4.64069,6.79626 9.64233,15.16382 15.1949,25.39967 5.55257,10.23585 11.65864,22.3417 18.51017,36.59728 8.70253,18.15101 14.57107,33.219 18.33748,45.75739 3.76641,12.5384 5.43076,22.54722 5.71532,30.55386 0.22156,6.22737 -0.39074,11.24792 -1.49358,15.31576 -1.10301,4.06786 -2.69707,7.18306 -4.43758,9.60045 -2.21015,2.98368 -4.56196,5.59276 -7.15715,7.81324 -2.59518,2.22056 -5.43573,4.05085 -8.63349,5.47363 -3.19774,1.42282 -6.748,2.43984 -10.76593,3.03035 -4.01792,0.59052 -8.49891,0.75111 -13.55454,0.47483 -10.11128,-0.55252 -22.52315,-2.86971 -38.09088,-7.09671 -15.56772,-4.2269 -34.29386,-10.35839 -57.05858,-18.53602 -12.59796,-4.47564 -23.58334,-8.78545 -33.15254,-12.94158 -9.56919,-4.15615 -17.72647,-8.16554 -24.67444,-12.02644 -6.94798,-3.86087 -12.68805,-7.57328 -17.42236,-11.16308 -4.73428,-3.58977 -8.45938,-7.05181 -11.38754,-10.39468 -2.92817,-3.34289 -5.0578,-6.56663 -6.58737,-9.68675 -1.52952,-3.12014 -2.45731,-6.13495 -2.99579,-9.05652 -1.07698,-5.84313 -0.58017,-11.3133 -0.13796,-16.5072 0.44204,-4.86236 1.98916,-10.00667 4.66208,-15.39348 2.6729,-5.38679 6.4682,-11.02213 11.41345,-16.87842 4.94526,-5.85631 11.03529,-11.9285 18.29431,-18.19936 7.25904,-6.27087 15.69048,-12.73437 25.30471,-19.36488 14.03456,-9.72473 25.60861,-16.86051 35.42312,-21.93763 9.81451,-5.07714 17.86612,-8.09734 24.85577,-9.61769 6.98967,-1.52036 12.91567,-1.53266 18.47564,-0.58708 z" />
  </g>
</svg>
