<?xml version="1.0" encoding="UTF-8" standalone="no"?>
<svg
   xmlns:dc="http://purl.org/dc/elements/1.1/"
   xmlns:cc="http://creativecommons.org/ns#"
   xmlns:rdf="http://www.w3.org/1999/02/22-rdf-syntax-ns#"
   xmlns:svg="http://www.w3.org/2000/svg"
   xmlns="http://www.w3.org/2000/svg"
   xmlns:sodipodi="http://sodipodi.sourceforge.net/DTD/sodipodi-0.dtd"
   xmlns:inkscape="http://www.inkscape.org/namespaces/inkscape"
   version="1.1"
   id="Слой_1"
   x="0px"
   y="0px"
   viewBox="0 0 315.47574 97.270164"
   xml:space="preserve"
   sodipodi:docname="edna-logo.svg"
   width="315.47574"
   height="97.270164"
   inkscape:version="1.0.2-2 (e86c870879, 2021-01-15)"><metadata
   id="metadata32"><rdf:RDF><cc:Work
       rdf:about=""><dc:format>image/svg+xml</dc:format><dc:type
         rdf:resource="http://purl.org/dc/dcmitype/StillImage" /><dc:title></dc:title></cc:Work></rdf:RDF></metadata><defs
   id="defs30" /><sodipodi:namedview
   pagecolor="#ffffff"
   bordercolor="#666666"
   borderopacity="1"
   objecttolerance="10"
   gridtolerance="10"
   guidetolerance="10"
   inkscape:pageopacity="0"
   inkscape:pageshadow="2"
   inkscape:window-width="1920"
   inkscape:window-height="1137"
   id="namedview28"
   showgrid="false"
   fit-margin-top="0"
   fit-margin-left="0"
   fit-margin-right="0"
   fit-margin-bottom="0"
   inkscape:zoom="3.4463453"
   inkscape:cx="226.7844"
   inkscape:cy="50.100893"
   inkscape:window-x="-8"
   inkscape:window-y="-8"
   inkscape:window-maximized="1"
   inkscape:current-layer="Слой_1" />
<style
   type="text/css"
   id="style2">
	.st0{fill:url(#SVGID_1_);}
</style>
<g
   id="g25"
   transform="translate(-3.02426,-0.89910679)">
	<path
   d="m 204.8,11.1 h -6 c -1,0 -1.7,0.8 -1.7,1.7 V 31.4 C 192.6,27.2 186.8,25 180.6,25 c -13.8,0 -25.1,11.7 -25.1,26.2 0,14.4 11.3,26.2 25.1,26.2 6.2,0 12.2,-2.3 16.8,-6.7 l 0.3,3.2 c 0.1,0.9 0.9,1.5 1.7,1.5 h 5.4 c 1,0 1.7,-0.8 1.7,-1.7 V 12.9 c 0,-0.9 -0.8,-1.8 -1.7,-1.8 z m -8.5,40.1 c 0,9 -7,16.3 -15.7,16.3 -8.7,0 -15.8,-7.3 -15.8,-16.3 0,-9 7,-16.3 15.7,-16.3 8.7,0 15.8,7.2 15.8,16.3 z"
   id="path4" />
	<path
   d="m 258.2,33.9 c -1.2,-1.8 -2.6,-3.4 -4.2,-4.6 -1.6,-1.3 -3.4,-2.3 -5.4,-3 -3.5,-1.3 -7.4,-1.5 -11.4,-0.8 -5.8,1 -10,4 -12.5,6.2 l -0.3,-3.3 c -0.1,-0.9 -0.9,-1.5 -1.7,-1.5 h -5.8 c -1,0 -1.7,0.8 -1.7,1.7 v 45.1 c 0,1 0.8,1.7 1.7,1.7 h 6.4 c 1,0 1.7,-0.8 1.7,-1.7 V 41.6 c 4.7,-3.3 8.9,-5.6 13.7,-6.5 2,-0.4 4.5,-0.1 6.7,0.7 1.9,0.7 3.6,1.9 4.6,3.7 2.1,3.2 2.1,7.2 2.1,10.8 v 23.3 c 0,1 0.8,1.7 1.7,1.7 h 6.5 c 1,0 1.7,-0.8 1.7,-1.7 V 55 c 0,-0.8 0,-1.6 0,-2.4 0.1,-4.3 0.1,-8.9 -1.2,-13.2 -0.7,-1.9 -1.5,-3.9 -2.6,-5.5 z"
   id="path6" />
	<path
   d="m 316.7,26.8 h -6 c -1,0 -1.7,0.8 -1.7,1.7 v 3 c -4.5,-4.2 -10.3,-6.4 -16.4,-6.4 -13.8,0 -25.1,11.7 -25.1,26.2 0,14.4 11.3,26.2 25.1,26.2 6.2,0 12.2,-2.3 16.8,-6.7 l 0.3,3.2 c 0.1,0.9 0.9,1.5 1.7,1.5 h 5.4 c 1,0 1.7,-0.8 1.7,-1.7 v -45 c 0,-1.2 -0.8,-2 -1.8,-2 z m -8.4,24.4 c 0,9 -7,16.3 -15.7,16.3 -8.7,0 -15.7,-7.3 -15.7,-16.3 0,-9 7,-16.3 15.7,-16.3 8.7,0 15.7,7.2 15.7,16.3 z"
   id="path8" />
	<path
   d="m 151.5,46.1 c -1.8,-11.9 -11.2,-21 -23.4,-21 -0.1,0 -0.2,0 -0.3,0 -13.8,0 -25.1,11.7 -25.1,26.2 0,14.4 11.2,26.1 25.1,26.2 h 0.5 c 8.4,0 15.6,-3.5 20.9,-9.4 0.6,-0.7 0.6,-1.6 0,-2.3 l -3.8,-4.2 C 145,61.2 144.6,61 144.1,61 c -0.5,0 -1,0.3 -1.3,0.7 -3.3,4.2 -7.7,6 -14.4,6 -0.2,0 -0.4,0 -0.6,0 -7.6,0 -13.9,-5.6 -15.4,-13 h 35.5 c 2.2,0 4,-1.8 4,-4.1 -0.1,-0.1 -0.1,-2.2 -0.4,-4.5 z m -38.2,-1.2 c 2.3,-5.9 7.9,-10 14.4,-10 h 0.5 c 6.5,0 12,4 14,10 h -0.1 v 0 z"
   id="path10" />
	
		<radialGradient
   id="SVGID_1_"
   cx="50.7878"
   cy="31.3895"
   r="89.074799"
   fx="50.774399"
   fy="31.2847"
   gradientTransform="matrix(1,0,0,-1,0,83.5855)"
   gradientUnits="userSpaceOnUse">
		<stop
   offset="0.2519"
   style="stop-color:#17E23B"
   id="stop12" />
		<stop
   offset="0.4262"
   style="stop-color:#1AEB83"
   id="stop14" />
		<stop
   offset="0.5994"
   style="stop-color:#1DF4C5"
   id="stop16" />
		<stop
   offset="0.7243"
   style="stop-color:#1EF9EE"
   id="stop18" />
		<stop
   offset="0.7885"
   style="stop-color:#1FFBFF"
   id="stop20" />
	</radialGradient>
	<path
   class="st0"
   d="M 82.7,6.5 C 72.9,-1.8 57.4,-0.8 36.4,9 11,20.8 6.8,30.3 5.7,32.8 c -6.9,15.7 0.7,29.5 9.7,42.6 10.6,15.2 20.1,22.1 32,22.7 5.6,0.3 12.8,0 22,-8.8 C 75,83.9 80.7,75 85.9,60.4 92.5,42.1 100,21.3 82.7,6.5 Z M 66.2,54.3 C 58.1,77.1 52.4,76.5 47.7,76.1 43.3,75.7 37.9,71.3 31.9,62.6 23.1,49.9 23.7,46.1 25.8,41.1 v 0 c 1.5,-3.6 6.6,-7.1 19.5,-13.3 14.6,-7 20.4,-5.9 22.9,-4.1 5.4,4 5.4,10 -2,30.6 z"
   id="path23"
   style="fill:url(#SVGID_1_)" />
</g>
</svg>
