<svg xmlns="http://www.w3.org/2000/svg" width="315.476" height="97.27"><g transform="translate(-3.024 -.9)"><path d="M204.8 11.1h-6c-1 0-1.7.8-1.7 1.7v18.6c-4.5-4.2-10.3-6.4-16.5-6.4-13.8 0-25.1 11.7-25.1 26.2 0 14.4 11.3 26.2 25.1 26.2 6.2 0 12.2-2.3 16.8-6.7l.3 3.2c.1.9.9 1.5 1.7 1.5h5.4c1 0 1.7-.8 1.7-1.7V12.9c0-.9-.8-1.8-1.7-1.8zm-8.5 40.1c0 9-7 16.3-15.7 16.3s-15.8-7.3-15.8-16.3 7-16.3 15.7-16.3 15.8 7.2 15.8 16.3zM258.2 33.9c-1.2-1.8-2.6-3.4-4.2-4.6-1.6-1.3-3.4-2.3-5.4-3-3.5-1.3-7.4-1.5-11.4-.8-5.8 1-10 4-12.5 6.2l-.3-3.3c-.1-.9-.9-1.5-1.7-1.5h-5.8c-1 0-1.7.8-1.7 1.7v45.1c0 1 .8 1.7 1.7 1.7h6.4c1 0 1.7-.8 1.7-1.7V41.6c4.7-3.3 8.9-5.6 13.7-6.5 2-.4 4.5-.1 6.7.7 1.9.7 3.6 1.9 4.6 3.7 2.1 3.2 2.1 7.2 2.1 10.8v23.3c0 1 .8 1.7 1.7 1.7h6.5c1 0 1.7-.8 1.7-1.7V55v-2.4c.1-4.3.1-8.9-1.2-13.2-.7-1.9-1.5-3.9-2.6-5.5zM316.7 26.8h-6c-1 0-1.7.8-1.7 1.7v3c-4.5-4.2-10.3-6.4-16.4-6.4-13.8 0-25.1 11.7-25.1 26.2 0 14.4 11.3 26.2 25.1 26.2 6.2 0 12.2-2.3 16.8-6.7l.3 3.2c.1.9.9 1.5 1.7 1.5h5.4c1 0 1.7-.8 1.7-1.7v-45c0-1.2-.8-2-1.8-2zm-8.4 24.4c0 9-7 16.3-15.7 16.3s-15.7-7.3-15.7-16.3 7-16.3 15.7-16.3 15.7 7.2 15.7 16.3zM151.5 46.1c-1.8-11.9-11.2-21-23.4-21h-.3c-13.8 0-25.1 11.7-25.1 26.2 0 14.4 11.2 26.1 25.1 26.2h.5c8.4 0 15.6-3.5 20.9-9.4.6-.7.6-1.6 0-2.3l-3.8-4.2c-.4-.4-.8-.6-1.3-.6s-1 .3-1.3.7c-3.3 4.2-7.7 6-14.4 6h-.6c-7.6 0-13.9-5.6-15.4-13h35.5c2.2 0 4-1.8 4-4.1-.1-.1-.1-2.2-.4-4.5zm-38.2-1.2c2.3-5.9 7.9-10 14.4-10h.5c6.5 0 12 4 14 10h-.1z"/><radialGradient id="a" cx="50.788" cy="31.39" r="89.075" fx="50.774" fy="31.285" gradientTransform="matrix(1 0 0 -1 0 83.585)" gradientUnits="userSpaceOnUse"><stop offset=".252" stop-color="#17e23b"/><stop offset=".426" stop-color="#1aeb83"/><stop offset=".599" stop-color="#1df4c5"/><stop offset=".724" stop-color="#1ef9ee"/><stop offset=".788" stop-color="#1ffbff"/></radialGradient><path d="M82.7 6.5C72.9-1.8 57.4-.8 36.4 9 11 20.8 6.8 30.3 5.7 32.8c-6.9 15.7.7 29.5 9.7 42.6 10.6 15.2 20.1 22.1 32 22.7 5.6.3 12.8 0 22-8.8C75 83.9 80.7 75 85.9 60.4c6.6-18.3 14.1-39.1-3.2-53.9zM66.2 54.3c-8.1 22.8-13.8 22.2-18.5 21.8-4.4-.4-9.8-4.8-15.8-13.5-8.8-12.7-8.2-16.5-6.1-21.5 1.5-3.6 6.6-7.1 19.5-13.3 14.6-7 20.4-5.9 22.9-4.1 5.4 4 5.4 10-2 30.6z" fill="url(#a)"/></g></svg>