<?xml version="1.0" encoding="UTF-8" standalone="no"?>
<svg
   xmlns:dc="http://purl.org/dc/elements/1.1/"
   xmlns:cc="http://creativecommons.org/ns#"
   xmlns:rdf="http://www.w3.org/1999/02/22-rdf-syntax-ns#"
   xmlns:svg="http://www.w3.org/2000/svg"
   xmlns="http://www.w3.org/2000/svg"
   xmlns:sodipodi="http://sodipodi.sourceforge.net/DTD/sodipodi-0.dtd"
   xmlns:inkscape="http://www.inkscape.org/namespaces/inkscape"
   width="210mm"
   height="297mm"
   viewBox="0 0 793.7008 1122.5197"
   fill="none"
   version="1.1"
   id="svg17"
   sodipodi:docname="edna_large_swirl.svg"
   inkscape:version="1.0.2-2 (e86c870879, 2021-01-15)"
   inkscape:export-filename="C:\Users\Rodrik\Documents\ASC\_common_images\edna_large_swirl.png"
   inkscape:export-xdpi="96"
   inkscape:export-ydpi="96">
  <metadata
     id="metadata21">
    <rdf:RDF>
      <cc:Work
         rdf:about="">
        <dc:format>image/svg+xml</dc:format>
        <dc:type
           rdf:resource="http://purl.org/dc/dcmitype/StillImage" />
        <dc:title></dc:title>
      </cc:Work>
    </rdf:RDF>
  </metadata>
  <sodipodi:namedview
     pagecolor="#ffffff"
     bordercolor="#666666"
     borderopacity="1"
     objecttolerance="10"
     gridtolerance="10"
     guidetolerance="10"
     inkscape:pageopacity="0"
     inkscape:pageshadow="2"
     inkscape:window-width="2560"
     inkscape:window-height="1017"
     id="namedview19"
     showgrid="false"
     inkscape:zoom="0.78374771"
     inkscape:cx="347.5"
     inkscape:cy="615.70257"
     inkscape:window-x="-8"
     inkscape:window-y="-8"
     inkscape:window-maximized="1"
     inkscape:current-layer="svg17"
     inkscape:document-rotation="0"
     units="mm"
     inkscape:document-units="mm" />
  <g
     id="g838"
     transform="translate(49.133846,368.74111)">
    <path
       d="M 517.005,36.6214 C 453.414,-17.6481 352.837,-11.1096 216.571,52.9676 51.7535,130.122 24.5003,192.237 17.3625,208.584 c -44.7731,102.654 4.5422,192.885 62.942,278.539 68.7815,99.385 130.4265,144.501 207.6435,148.424 36.338,1.962 83.058,0 142.755,-57.539 36.338,-35.307 73.324,-93.5 107.066,-188.962 42.827,-119.654 91.493,-255.655 -20.764,-352.4246 z"
       fill="#b015c2"
       id="path2" />
    <path
       d="M 626.005,70.6214 C 562.414,16.3519 461.837,22.8904 325.571,86.9676 160.753,164.122 133.5,226.237 126.363,242.584 c -44.7736,102.654 4.542,192.885 62.941,278.539 68.782,99.385 130.427,144.501 207.644,148.424 36.338,1.962 83.058,0 142.755,-57.539 36.338,-35.307 73.324,-93.5 107.066,-188.962 42.827,-119.654 91.493,-255.655 -20.764,-352.4246 z"
       fill="url(#paint0_radial)"
       id="path4"
       style="fill:url(#paint0_radial)" />
    <path
       d="M 574,232.554 C 574,340.809 437.385,583 310.104,583 182.824,583 101.364,424.324 107.304,280.921 113.244,137.518 307.917,90 416.172,90 524.426,90 574,124.3 574,232.554 Z"
       fill="black"
       id="path6"
       style="fill:#ffffff" />
  </g>
  <defs
     id="defs15">
    <radialGradient
       id="paint0_radial"
       cx="0"
       cy="0"
       r="1"
       gradientUnits="userSpaceOnUse"
       gradientTransform="matrix(0,318,-293,0,402,352)">
      <stop
         stop-color="#1FDF3C"
         id="stop10" />
      <stop
         offset="1"
         stop-color="#0BF5E4"
         id="stop12" />
    </radialGradient>
  </defs>
</svg>
