<svg xmlns="http://www.w3.org/2000/svg" width="315.476" height="97.27"><path d="M201.776 10.2h-6c-1 0-1.7.8-1.7 1.7v18.6c-4.5-4.2-10.3-6.4-16.5-6.4-13.8 0-25.1 11.7-25.1 26.2 0 14.4 11.3 26.2 25.1 26.2 6.2 0 12.2-2.3 16.8-6.7l.3 3.2c.1.9.9 1.5 1.7 1.5h5.4c1 0 1.7-.8 1.7-1.7V12c0-.9-.8-1.8-1.7-1.8zm-8.5 40.1c0 9-7 16.3-15.7 16.3s-15.8-7.3-15.8-16.3 7-16.3 15.7-16.3 15.8 7.2 15.8 16.3zM255.176 33c-1.2-1.8-2.6-3.4-4.2-4.6-1.6-1.3-3.4-2.3-5.4-3-3.5-1.3-7.4-1.5-11.4-.8-5.8 1-10 4-12.5 6.2l-.3-3.3c-.1-.9-.9-1.5-1.7-1.5h-5.8c-1 0-1.7.8-1.7 1.7v45.1c0 1 .8 1.7 1.7 1.7h6.4c1 0 1.7-.8 1.7-1.7V40.7c4.7-3.3 8.9-5.6 13.7-6.5 2-.4 4.5-.1 6.7.7 1.9.7 3.6 1.9 4.6 3.7 2.1 3.2 2.1 7.2 2.1 10.8v23.3c0 1 .8 1.7 1.7 1.7h6.5c1 0 1.7-.8 1.7-1.7V54.1v-2.4c.1-4.3.1-8.9-1.2-13.2-.7-1.9-1.5-3.9-2.6-5.5zM313.676 25.9h-6c-1 0-1.7.8-1.7 1.7v3c-4.5-4.2-10.3-6.4-16.4-6.4-13.8 0-25.1 11.7-25.1 26.2 0 14.4 11.3 26.2 25.1 26.2 6.2 0 12.2-2.3 16.8-6.7l.3 3.2c.1.9.9 1.5 1.7 1.5h5.4c1 0 1.7-.8 1.7-1.7v-45c0-1.2-.8-2-1.8-2zm-8.4 24.4c0 9-7 16.3-15.7 16.3s-15.7-7.3-15.7-16.3 7-16.3 15.7-16.3 15.7 7.2 15.7 16.3zM148.476 45.2c-1.8-11.9-11.2-21-23.4-21h-.3c-13.8 0-25.1 11.7-25.1 26.2 0 14.4 11.2 26.1 25.1 26.2h.5c8.4 0 15.6-3.5 20.9-9.4.6-.7.6-1.6 0-2.3l-3.8-4.2c-.4-.4-.8-.6-1.3-.6s-1 .3-1.3.7c-3.3 4.2-7.7 6-14.4 6h-.6c-7.6 0-13.9-5.6-15.4-13h35.5c2.2 0 4-1.8 4-4.1-.1-.1-.1-2.2-.4-4.5zm-38.2-1.2c2.3-5.9 7.9-10 14.4-10h.5c6.5 0 12 4 14 10h-.1z"/><path d="M79.676 5.6c-9.8-8.3-25.3-7.3-46.3 2.5-25.4 11.8-29.6 21.3-30.7 23.8-6.9 15.7.7 29.5 9.7 42.6 10.6 15.2 20.1 22.1 32 22.7 5.6.3 12.8 0 22-8.8 5.6-5.4 11.3-14.3 16.5-28.9 6.6-18.3 14.1-39.1-3.2-53.9zm-16.5 47.8c-8.1 22.8-13.8 22.2-18.5 21.8-4.4-.4-9.8-4.8-15.8-13.5-8.8-12.7-8.2-16.5-6.1-21.5 1.5-3.6 6.6-7.1 19.5-13.3 14.6-7 20.4-5.9 22.9-4.1 5.4 4 5.4 10-2 30.6z" fill="#17e33b"/></svg>